<?xml version="1.0" encoding="UTF-8"?>
<svg xmlns="http://www.w3.org/2000/svg" viewBox="390 55 560 560">
  <style>.ink{fill:#1d2b28}.bg{fill:transparent}.dim{fill:#1d2b28;fill-opacity:.3}@media(prefers-color-scheme:dark){.ink{fill:#eef4f8}.bg{fill:transparent}.dim{fill:#eef4f8;fill-opacity:.3}}</style>
  <path d="M0 0 C22.77 0 45.54 0 69 0 C69 36.96 69 73.92 69 112 C105.96 112 142.92 112 181 112 C181 134.77 181 157.54 181 181 C143.71 181 106.42 181 68 181 C68 193.54 68 206.08 68 219 C61.565 220.98 61.565 220.98 55 223 C52.75304595 223.87215785 50.51702383 224.77555836 48.3125 225.75 C43.19578313 228 43.19578313 228 41 228 C39.66796875 226.35546875 39.66796875 226.35546875 38.1875 224.1875 C34.8061281 219.53091485 31.64820316 217.19500862 26 216 C18.02625778 215.06817704 11.97717406 216.77076973 4.65234375 219.90625 C2 221 2 221 0 221 C0 207.8 0 194.6 0 181 C-7.59 181 -15.18 181 -23 181 C-23 158.23 -23 135.46 -23 112 C-15.41 112 -7.82 112 0 112 C0 75.04 0 38.08 0 0 Z " class="ink" transform="translate(727,87)"/>
  <path d="M0 0 C0.66 0 1.32 0 2 0 C1.99840881 0.80385132 1.99681763 1.60770264 1.99517822 2.43591309 C1.99072633 10.08481092 2.04449323 17.73020867 2.16055679 25.37815094 C2.21823384 29.3085593 2.25488904 33.2366235 2.24023438 37.16748047 C1.64109846 60.59590601 1.64109846 60.59590601 13.0703125 80.18798828 C13.57479919 80.66064117 14.07928589 81.13329407 14.59906006 81.62026978 C16.65607963 83.64614682 18.18239391 85.96195434 19.75 88.375 C20.19859375 89.04273438 20.6471875 89.71046875 21.109375 90.3984375 C22 92 22 92 22 94 C22.66 94 23.32 94 24 94 C24.10828125 93.00226563 24.2165625 92.00453125 24.328125 90.9765625 C24.91359151 86.90081486 26.23794948 83.18965122 27.75 79.375 C30.04807004 73.59666945 30.04807004 73.59666945 31.91015625 67.66796875 C35.26824475 56.11091092 44.35515821 48.90389606 53 41 C53.33 41.66 53.66 42.32 54 43 C53.11837702 45.59554739 52.16461089 48.0924817 51.125 50.625 C50.47237997 52.2558797 49.82142627 53.88742689 49.171875 55.51953125 C48.82060547 56.39947754 48.46933594 57.27942383 48.10742188 58.18603516 C46.1326106 63.20404105 44.25810789 68.25952677 42.375 73.3125 C39.29403394 81.55916932 36.18925847 89.79447066 33 98 C33.98742187 97.96390625 34.97484375 97.9278125 35.9921875 97.890625 C40.21074756 97.89486263 44.04790347 98.73084306 48.125 99.75 C49.22726929 100.01852783 49.22726929 100.01852783 50.35180664 100.29248047 C68.89183835 104.89183835 68.89183835 104.89183835 72 108 C71.37657715 107.96970703 70.7531543 107.93941406 70.11083984 107.90820312 C58.40078771 107.34719086 46.72634075 106.81709347 35 107 C35.28875 107.69867188 35.5775 108.39734375 35.875 109.1171875 C36.24625 110.02726562 36.6175 110.93734375 37 111.875 C37.37125 112.77992188 37.7425 113.68484375 38.125 114.6171875 C39 117 39 117 39 119 C50.55 119 62.1 119 74 119 C74 119.66 74 120.32 74 121 C73.19780029 121.23710693 72.39560059 121.47421387 71.5690918 121.71850586 C68.58898922 122.59960407 65.60902384 123.48116435 62.62915039 124.36303711 C60.7066485 124.93183466 58.78398908 125.50009971 56.86132812 126.06835938 C55.65283203 126.42607422 54.44433594 126.78378906 53.19921875 127.15234375 C52.08377686 127.48226318 50.96833496 127.81218262 49.8190918 128.15209961 C47.87018436 128.73827398 45.93071399 129.35642867 44 130 C43.26676204 132.01508358 43.26676204 132.01508358 43 134 C43.53367187 134.15855469 44.06734375 134.31710937 44.6171875 134.48046875 C50.01303221 136.17017099 54.80465605 138.34463817 59.73828125 141.109375 C62.44255081 142.17426871 63.28487244 141.86016432 66 141 C68.62420072 139.77744898 71.21008988 138.52307917 73.79296875 137.21875 C74.53960281 136.84520386 75.28623688 136.47165771 76.05549622 136.08679199 C77.6290128 135.29852611 79.20155913 134.50832084 80.77319336 133.71630859 C83.18699699 132.50025341 85.60396033 131.29067049 88.02148438 130.08203125 C89.54966887 129.31548224 91.07767014 128.54856781 92.60546875 127.78125 C93.69446724 127.23591614 93.69446724 127.23591614 94.8054657 126.67956543 C98.1196976 125.16032938 98.1196976 125.16032938 101 123 C101.90794481 116.91848285 102.13803803 111.34615229 99.4140625 105.73046875 C94.75563203 99.44915547 90.52461143 96.72122285 82.8671875 95.30859375 C80.08830043 94.96332924 80.08830043 94.96332924 77.6328125 94.97265625 C75.5625 94.9375 75.5625 94.9375 72 94 C67.86877747 88.56019651 65.92679493 81.48530977 64 75 C67.61207454 76.70928527 70.75022894 78.86149089 74 81.171875 C76.01166916 82.27138267 76.01166916 82.27138267 78.125 81.203125 C79.053125 80.60757813 79.053125 80.60757813 80 80 C88.25242699 75.8737865 100.67810737 80.66386554 109 83 C110 84 110 84 110.12025452 86.13233948 C110.11803391 87.07165817 110.11581329 88.01097687 110.11352539 88.97875977 C110.11344986 90.03978409 110.11337433 91.10080841 110.11329651 92.19398499 C110.10813522 93.348134 110.10297394 94.50228302 110.09765625 95.69140625 C110.09553383 97.4538694 110.09553383 97.4538694 110.09336853 99.25193787 C110.08774992 103.02215064 110.07519426 106.79230504 110.0625 110.5625 C110.0574874 113.11132727 110.05292408 115.66015547 110.04882812 118.20898438 C110.03777444 124.47267633 110.02101821 130.73633399 110 137 C109.37959335 137.09937363 108.75918671 137.19874725 108.11997986 137.3011322 C101.99074605 138.38827737 96.82084018 140.13238754 91.25390625 142.87890625 C90.47611313 143.25103745 89.69832001 143.62316864 88.8969574 144.00657654 C86.4468909 145.18133941 84.00460705 146.37129311 81.5625 147.5625 C79.09387318 148.75386089 76.6237511 149.94206001 74.15306091 151.12913513 C72.62454148 151.86490261 71.09750639 152.60376378 69.57215881 153.34608459 C66.7391961 154.72016924 63.99084266 156.00305245 61 157 C60.96590201 159.14817321 60.94422418 161.2972439 60.984375 163.4453125 C61 166 61 166 60.765625 168.1796875 C60.64219382 171.54935858 61.0407322 173.84209403 63.24267578 176.5 C68.39687942 181.82552095 74.22335686 186.37868549 80 191 C80.33 186.71 80.66 182.42 81 178 C84.40571043 179.70285522 86.17509147 180.89999667 88.828125 183.44921875 C89.54613281 184.13306641 90.26414062 184.81691406 91.00390625 185.52148438 C92.11572266 186.59366211 92.11572266 186.59366211 93.25 187.6875 C94.71218715 189.08865447 96.17572284 190.48840306 97.640625 191.88671875 C98.28547852 192.50764404 98.93033203 193.12856934 99.59472656 193.76831055 C101.81077905 195.99287081 101.81077905 195.99287081 104.02612305 197.16069031 C106.70316516 198.90587209 108.23597291 200.312022 110 203 C111.14251178 209.20756911 110.93199589 215.33149921 110.78125 221.62109375 C110.76631606 223.44952412 110.75493448 225.27798666 110.74694824 227.10646057 C110.71650422 231.90279615 110.63801034 236.69717192 110.54931641 241.49273682 C110.46725639 246.39267466 110.43089391 251.29293142 110.390625 256.19335938 C110.30500663 265.79643072 110.16859524 275.39805196 110 285 C105.96034448 282.6571522 102.77442942 280.09117177 99.375 276.875 C94.72045631 272.52483869 89.93081107 268.43318608 84.96875 264.43359375 C81.48668167 261.57921406 78.08359134 258.64318854 74.6875 255.6875 C74.05239502 255.13481445 73.41729004 254.58212891 72.76293945 254.01269531 C71.47554041 252.89214215 70.1881869 251.77153666 68.90087891 250.65087891 C61.46170776 244.19009349 53.96090172 237.79988915 46.4375 231.4375 C45.47816559 230.60559143 44.51883118 229.77368286 43.53042603 228.91656494 C41.29380814 227.01681217 39.03139155 225.31134316 36.57991028 223.70036316 C31.67880772 220.33109773 27.12124498 217.09096458 25.8243103 211.01016235 C25.24493174 206.29544873 25.37790481 201.60152159 25.51171875 196.86328125 C25.51353113 195.13022029 25.50959405 193.39714472 25.50019836 191.66410828 C25.49089078 187.13656763 25.55885392 182.61347518 25.64379883 178.08685303 C25.71676648 173.45452806 25.71546476 168.82226215 25.72070312 164.18945312 C25.741754 155.12485609 25.84456591 146.06322021 26 137 C20.37185862 142.39201382 19.41638085 148.02399355 19.22705078 155.46704102 C19.16555864 159.31347784 19.17631198 163.15714709 19.1953125 167.00390625 C19.18405267 169.05372168 19.17016781 171.10352422 19.15377808 173.15330505 C19.11783408 178.52425797 19.11735472 183.89464054 19.12445068 189.26568604 C19.12536548 194.75600297 19.09247813 200.24610833 19.0625 205.73632812 C19.008726 216.49094519 18.99244533 227.24526329 19 238 C10.07107817 229.14164785 2.41181753 219.32292791 -5.15771484 209.30639648 C-8.94228943 204.32069912 -12.87588481 199.50862989 -16.95678711 194.76416016 C-20.42935888 190.7139965 -23.76928541 186.57213848 -27.0625 182.375 C-27.5280127 181.78243408 -27.99352539 181.18986816 -28.47314453 180.5793457 C-34.04512153 173.44070379 -34.04512153 173.44070379 -33.76000977 170.65600586 C-32.95387686 167.83881349 -31.96978241 165.20807425 -30.83984375 162.50390625 C-30.38375732 161.4058667 -29.9276709 160.30782715 -29.45776367 159.17651367 C-28.70523315 157.3875769 -28.70523315 157.3875769 -27.9375 155.5625 C-27.40908294 154.30256492 -26.88084858 153.04255322 -26.3527832 151.7824707 C-25.50061847 149.74936366 -24.6479236 147.71649047 -23.79325867 145.68443298 C-21.81188065 140.96603071 -19.86683117 136.23391908 -17.94029236 131.49287415 C-16.54447855 128.06365356 -15.13556222 124.63989486 -13.72488403 121.21676636 C-13.03870688 119.54378439 -12.35784783 117.86861032 -11.68258667 116.19119263 C-5.14484647 99.97326476 -5.14484647 99.97326476 0.73901367 94.44555664 C2.35606974 92.91152236 2.35606974 92.91152236 2 89.75 C1.505 88.38875 1.505 88.38875 1 87 C0.814375 86.21625 0.62875 85.4325 0.4375 84.625 C0.293125 84.08875 0.14875 83.5525 0 83 C-0.66 83 -1.32 83 -2 83 C-2.19335938 83.60328125 -2.38671875 84.2065625 -2.5859375 84.828125 C-2.84632813 85.62734375 -3.10671875 86.4265625 -3.375 87.25 C-3.75785156 88.43335938 -3.75785156 88.43335938 -4.1484375 89.640625 C-5.44138076 93.22290815 -6.38112422 95.45789266 -9.30078125 98.01538086 C-12.93714843 101.6104973 -14.50688089 106.0985905 -16.3984375 110.76953125 C-16.7964859 111.72333176 -17.1945343 112.67713226 -17.60464478 113.65983582 C-18.87310578 116.70603287 -20.12449213 119.75889498 -21.375 122.8125 C-22.20716301 124.82275049 -23.04048597 126.83252122 -23.875 128.84179688 C-25.10003317 131.79166151 -26.32445447 134.74175088 -27.5446167 137.69363403 C-29.9689438 143.55251818 -32.43445991 149.39042568 -34.9765625 155.19921875 C-35.25664154 155.83962601 -35.53672058 156.48003326 -35.82528687 157.1398468 C-37.14425294 160.13271199 -38.50249672 163.09199468 -40 166 C-49.77761055 155.16072246 -53.03678158 145.29292091 -55.45410156 131.04882812 C-56.37791708 125.88934326 -57.57056504 120.79346701 -58.75 115.6875 C-58.96124512 114.74447021 -59.17249023 113.80144043 -59.39013672 112.82983398 C-59.58623535 111.96173096 -59.78233398 111.09362793 -59.984375 110.19921875 C-60.15678711 109.43440186 -60.32919922 108.66958496 -60.50683594 107.8815918 C-60.9495044 105.92946432 -60.9495044 105.92946432 -62 104 C-62.4375 101.1875 -62.4375 101.1875 -62 98 C-60.56056777 96.85772728 -59.12065593 95.7160522 -57.67797852 94.57788086 C-54.4198131 91.51407712 -52.44311286 87.54434105 -50.25 83.6875 C-49.1848866 81.86252609 -48.11846682 80.03831403 -47.05078125 78.21484375 C-46.5295166 77.31878418 -46.00825195 76.42272461 -45.47119141 75.49951172 C-43.53083579 72.20290355 -41.49335982 68.9752644 -39.4375 65.75 C-33.94191264 57.05941093 -28.74470157 48.18993067 -23.50979614 39.34112549 C-17.44569316 29.09153734 -11.32138623 18.8837194 -5.10058594 8.72827148 C-4.56981445 7.86145752 -4.03904297 6.99464355 -3.4921875 6.1015625 C-3.03183105 5.35213379 -2.57147461 4.60270508 -2.09716797 3.83056641 C-0.96748209 1.99848671 -0.96748209 1.99848671 0 0 Z " class="ink" transform="translate(578,267)"/>
  <path d="M0 0 C6.32225871 0.49912569 13.41353714 3.14617244 17.73828125 7.91796875 C19.92309154 11.52324393 20.17380556 14.83470371 20.25 19 C20.27578125 19.845625 20.3015625 20.69125 20.328125 21.5625 C19.91694337 24.61699208 19.21308095 25.85725001 17 28 C14.328125 28.94140625 14.328125 28.94140625 11.25 29.5625 C7.66652444 30.34922202 4.38297705 31.11888612 1.0625 32.6875 C-1.94046302 33.97448415 -3.783219 34.29243464 -7 34 C-6.505 36.97 -6.505 36.97 -6 40 C2.81541611 38.19402291 2.81541611 38.19402291 11.3125 35.3125 C15.75999457 33.72949346 18.32414445 33.37655259 23 34 C26.28759448 37.11456319 28.72340855 40.82318935 29.30078125 45.3671875 C29.30464844 46.19476563 29.30851563 47.02234375 29.3125 47.875 C29.32925781 48.69742188 29.34601563 49.51984375 29.36328125 50.3671875 C28.88067091 53.8648151 27.94003497 56.0350502 26 59 C22.84667969 60.0925293 22.84667969 60.0925293 18.921875 60.57421875 C18.2105542 60.66877853 17.4992334 60.76333832 16.76635742 60.86076355 C14.43009856 61.16376093 12.09127723 61.42636165 9.75 61.6875 C8.13030512 61.88698613 6.51083927 62.08834021 4.89160156 62.29150391 C0.74197317 62.80277706 -3.41092456 63.27586929 -7.56689453 63.73248291 C-9.91365431 63.99050639 -12.25959981 64.25501068 -14.60546875 64.52099609 C-18.81806912 64.99491798 -23.03301748 65.44196355 -27.25 65.875 C-29.15507324 66.07355591 -29.15507324 66.07355591 -31.09863281 66.27612305 C-39.1947057 67.04219009 -46.44794968 67.54002359 -54 64 C-53.690625 64.9075 -53.38125 65.815 -53.0625 66.75 C-50.81395349 73.62790698 -50.81395349 73.62790698 -52 76 C-52.69677345 83.52743776 -52.46752812 88.82429937 -48 95 C-47.01 96.485 -47.01 96.485 -46 98 C-46.33 98.66 -46.66 99.32 -47 100 C-47.51421665 105.08315807 -47.80734489 110.26182313 -45.5 114.9375 C-41.68616423 119.60944881 -37.72256151 121.64756282 -31.81835938 122.41186523 C-28.20858532 122.61522925 -24.61517686 122.70800745 -21 122.75 C-19.12248047 122.79447266 -19.12248047 122.79447266 -17.20703125 122.83984375 C-14.13795759 122.91012788 -11.06962548 122.96303192 -8 123 C-7.62752156 131.67495737 -7.34416865 140.34712594 -7.17100525 149.02836323 C-7.08783915 153.06094468 -6.97534428 157.088021 -6.79296875 161.11743164 C-5.65168102 187.01429596 -5.65168102 187.01429596 -9.44482422 193.45223999 C-13.01604908 197.21931832 -17.19455813 199.27324068 -21.97753906 201.15176392 C-24.87839261 202.36840479 -27.24188113 204.13131915 -29.75 206.01171875 C-39.80428223 213.05309212 -49.91190114 220.00350795 -60.125 226.8125 C-61.13820313 227.48821045 -62.15140625 228.1639209 -63.1953125 228.86010742 C-67.4222404 231.66741068 -71.64621534 234.3877292 -76 237 C-76 205.32 -76 173.64 -76 141 C-82.27548681 142.79299623 -86.1482552 144.74306809 -91.45703125 148.25390625 C-95.71196772 151 -95.71196772 151 -99 151 C-99.14046131 135.26598302 -99.24611276 119.53213665 -99.31087303 103.79764748 C-99.34174817 96.49102382 -99.3838057 89.1847908 -99.45263672 81.87841797 C-99.51263494 75.50657767 -99.55119523 69.13502043 -99.56453097 62.76290548 C-99.57232073 59.39198134 -99.59049154 56.0218666 -99.63438034 52.65120316 C-99.67810234 48.8784767 -99.68392699 45.10741275 -99.68115234 41.33447266 C-99.702724 40.22963531 -99.72429565 39.12479797 -99.746521 37.98648071 C-99.68653086 30.42025268 -97.97202728 24.83749362 -93 19 C-90.11530861 17.08122431 -87.3023452 16.0196181 -84 15 C-83.06800781 14.68933594 -82.13601563 14.37867188 -81.17578125 14.05859375 C-79.1581568 13.38605227 -77.13581946 12.72751039 -75.109375 12.08203125 C-71.94679257 10.98148435 -68.97847588 9.64837621 -65.9375 8.25 C-60.223813 5.84935402 -55.14672137 4.68075138 -49 6 C-42.45857307 9.17119885 -38.34487838 16.63690007 -34.22216797 22.33398438 C-32.11857036 25.20153333 -29.92932073 28.00237682 -27.75 30.8125 C-26.91343987 31.90186589 -26.07747858 32.99169199 -25.2421875 34.08203125 C-23.92499527 35.79621696 -22.60019471 37.50468695 -21.2578125 39.19921875 C-19.40108854 41.61715588 -18.08897757 43.66026746 -17.3125 46.625 C-18.14400297 49.49746482 -19.36810534 51.24302688 -21.765625 53.046875 C-27.44642041 55.47015136 -34.4490784 54.90257539 -40.3359375 53.40625 C-46.76099345 50.57398044 -53.22326756 44.76899418 -57.35546875 39.16015625 C-59.1697635 37.61612609 -59.1697635 37.61612609 -62.6875 38.3125 C-63.780625 38.539375 -64.87375 38.76625 -66 39 C-65.94763184 39.59723877 -65.89526367 40.19447754 -65.84130859 40.80981445 C-64.5044214 58.5091856 -67.70681183 71.38531536 -79.3359375 85.03125 C-80.21507812 86.0109375 -81.09421875 86.990625 -82 88 C-69.22379349 78.7183595 -61.44850542 68.03848496 -58.25 52.3125 C-58.1675 51.549375 -58.085 50.78625 -58 50 C-54.39743349 51.75655613 -50.96390616 53.74836406 -47.51171875 55.78125 C-39.26212418 59.78416369 -29.2416459 60.62264354 -20.35546875 58.3125 C-16.82795675 56.7418082 -15.22862442 55.3286476 -13 52.125 C-11.86556206 48.57988145 -11.34944039 46.68650446 -12 43 C-15.59180093 36.06993703 -21.03530627 29.95895772 -25.828125 23.8203125 C-27.28452642 21.92908619 -28.67592214 19.98611679 -30 18 C-25.3208409 15.83895979 -20.62965854 13.82333783 -15.78125 12.0703125 C-14.91242188 11.74933594 -14.04359375 11.42835938 -13.1484375 11.09765625 C-11.35772402 10.44000484 -9.56052302 9.79979643 -7.7578125 9.17578125 C-5.33759965 8.26365899 -3.16775926 7.41208025 -1 6 C0.25886557 2.88108714 0.25886557 2.88108714 0 0 Z " class="ink" transform="translate(803,303)"/>
  <path d="M0 0 C0.65464233 1.42989258 0.65464233 1.42989258 1.32250977 2.88867188 C9.15668803 19.99469028 17.00799986 37.09202702 25 54.125 C25.46373016 55.11382172 25.46373016 55.11382172 25.93682861 56.12261963 C28.91549499 62.4716701 31.90557302 68.81491513 34.93359375 75.140625 C35.36349609 76.04022949 35.79339844 76.93983398 36.23632812 77.86669922 C37.00865696 79.47948508 37.78441923 81.09063364 38.56445312 82.69970703 C41 87.78014297 41 87.78014297 41 90 C34.59903296 89.25748782 28.65912233 87.5652803 22.49609375 85.72851562 C16.82537592 83.94371547 16.82537592 83.94371547 11 84 C8.39120532 85.4542769 6.01296292 86.93900761 3.5625 88.625 C2.04379268 89.63925564 0.52421735 90.65221241 -0.99609375 91.6640625 C-1.8041748 92.20579102 -2.61225586 92.74751953 -3.44482422 93.30566406 C-7.9192295 96.27264024 -12.46310112 99.12990204 -17 102 C-23.51865666 106.13831436 -30.0240379 110.29518407 -36.5 114.5 C-45.67567332 120.45556039 -54.90910119 126.31945921 -64.14306641 132.18408203 C-67.00704355 134.00447701 -69.86906818 135.82790186 -72.73046875 137.65234375 C-81.49222776 143.23781426 -90.26222348 148.80775885 -99.07983398 154.3046875 C-104.37447184 157.60594613 -109.65895862 160.92306281 -114.9375 164.25 C-115.70666748 164.73355957 -116.47583496 165.21711914 -117.26831055 165.71533203 C-121.96584697 168.67915108 -126.58563109 171.73047277 -131.15454102 174.88964844 C-133 176 -133 176 -135 176 C-133.54705625 169.65666023 -131.8735688 163.46594358 -129.75 157.3125 C-127.43231116 150.59342662 -125.50769387 143.78996347 -123.625 136.9375 C-121.1367575 127.89446543 -118.44591405 118.94863041 -115.55517578 110.02685547 C-113.58049885 103.90369759 -111.74750389 97.75407203 -110 91.5625 C-109.75596436 90.71437744 -109.51192871 89.86625488 -109.26049805 88.99243164 C-107.91142384 84.29432827 -106.63352524 79.58707081 -105.421875 74.8515625 C-100.50335741 56.27666756 -100.50335741 56.27666756 -93.1171875 51.73046875 C-92.08851563 51.15941406 -91.05984375 50.58835938 -90 50 C-87.85994859 48.59223913 -85.74820704 47.14626506 -83.63354492 45.70068359 C-81.31326575 44.12551985 -78.97103541 42.58907233 -76.62109375 41.05859375 C-73.62267484 39.09614015 -70.6857379 37.07686519 -67.78515625 34.97265625 C-67.12410889 34.50263184 -66.46306152 34.03260742 -65.78198242 33.54833984 C-64.54954134 32.66885878 -63.32856933 31.77297689 -62.12231445 30.85791016 C-59.09239849 28.72783509 -57.13073494 28.00313308 -53.4140625 27.9140625 C-47.19601343 29.11902401 -41.33562559 31.80257648 -35.5 34.1875 C-33.62596941 34.94137501 -31.75064773 35.69197683 -29.87530518 36.44258118 C-28.04167692 37.17706457 -26.20930503 37.91468195 -24.37695312 38.65234375 C-20.0228008 40.38997539 -15.64517457 42.05688196 -11.25 43.6875 C-10.01765625 44.14511719 -8.7853125 44.60273438 -7.515625 45.07421875 C-6.68546875 45.37972656 -5.8553125 45.68523437 -5 46 C-4.67 45.67 -4.34 45.34 -4 45 C-4.3609375 44.51789063 -4.721875 44.03578125 -5.09375 43.5390625 C-5.5578125 42.90742188 -6.021875 42.27578125 -6.5 41.625 C-6.9640625 40.99851563 -7.428125 40.37203125 -7.90625 39.7265625 C-9 38 -9 38 -9 36 C-10.21236328 35.85884766 -10.21236328 35.85884766 -11.44921875 35.71484375 C-15.83293388 34.83231364 -19.69281594 33.27038022 -23.8125 31.5625 C-25.57409167 30.84474011 -27.33581731 30.12730896 -29.09765625 29.41015625 C-30.03883301 29.0248877 -30.98000977 28.63961914 -31.94970703 28.24267578 C-37.53810452 25.96598751 -43.14552472 23.73674212 -48.75 21.5 C-50.91153383 20.63560542 -53.07299858 19.7710381 -55.234375 18.90625 C-56.15444336 18.53822266 -57.07451172 18.17019531 -58.02246094 17.79101562 C-58.67504883 17.52998047 -59.32763672 17.26894531 -60 17 C-60 16.34 -60 15.68 -60 15 C-59.01942627 14.75878418 -58.03885254 14.51756836 -57.02856445 14.26904297 C-52.45535145 13.14249161 -47.88361597 12.01002836 -43.3125 10.875 C-42.49298859 10.6715799 -41.67347717 10.46815979 -40.82913208 10.25857544 C-30.12777063 7.59655112 -19.46966405 4.84924032 -8.90551758 1.67724609 C-5.83443144 0.76153269 -3.22470708 0 0 0 Z " class="ink" transform="translate(619,101)"/>
  <path d="M0 0 C0.99 0.495 0.99 0.495 2 1 C1.26317993 2.18903931 1.26317993 2.18903931 0.51147461 3.40209961 C-4.22678593 11.07160423 -8.86320864 18.79374377 -13.4375 26.5625 C-19.33796896 36.56034581 -25.32163815 46.50364303 -31.36611938 56.41519165 C-36.78367416 65.30242509 -42.11721083 74.23635294 -47.41201782 83.19720459 C-54.69214816 95.51776331 -62.12448961 107.71799964 -69.7578125 119.82421875 C-72.57618229 124.30069395 -75.30678457 128.82247624 -78 133.375 C-87.23845744 148.87326866 -87.23845744 148.87326866 -91.9375 151.87890625 C-95.4339356 154.30054468 -97.07712496 156.6560378 -99.3125 160.25 C-100.52342025 162.17824634 -101.74734774 164.09859943 -103 166 C-103.33 166 -103.66 166 -104 166 C-104.23356537 155.50677135 -104.41031143 145.01417885 -104.51812172 134.51886272 C-104.56991453 129.64322109 -104.63994297 124.76938061 -104.75439453 119.89477539 C-105.69414297 78.80356627 -105.69414297 78.80356627 -95.2399292 65.57606506 C-93.78216496 63.77988134 -93.78216496 63.77988134 -91.95556641 60.74902344 C-89.96921444 57.95672341 -88.39780756 56.57836935 -85.5 54.80859375 C-84.1855188 53.99092529 -84.1855188 53.99092529 -82.84448242 53.15673828 C-81.90580322 52.58938965 -80.96712402 52.02204102 -80 51.4375 C-77.99547254 50.19501207 -75.99157867 48.95150145 -73.98828125 47.70703125 C-72.97975098 47.08521973 -71.9712207 46.4634082 -70.93212891 45.82275391 C-66.6409717 43.15516192 -62.41346294 40.39426997 -58.1875 37.625 C-44.37629708 28.61576949 -30.47640433 19.7435506 -16.5546875 10.90625 C-15.53552246 10.25906006 -14.51635742 9.61187012 -13.46630859 8.94506836 C-11.52472915 7.71284457 -9.58237578 6.48183917 -7.63916016 5.25219727 C-6.7785498 4.70619873 -5.91793945 4.1602002 -5.03125 3.59765625 C-4.27392578 3.11820557 -3.51660156 2.63875488 -2.73632812 2.14477539 C-1.04831861 1.11536058 -1.04831861 1.11536058 0 0 Z " class="ink" transform="translate(600,213)"/>
  <path d="M0 0 C22.11 0 44.22 0 67 0 C67 39.6 67 79.2 67 120 C54.65197241 115.06078897 47.85996372 107.85553929 42.57519531 95.99804688 C41.92455899 94.47810898 41.27450847 92.9579202 40.625 91.4375 C39.91056446 89.83899876 39.19272322 88.24201581 38.47167969 86.64648438 C36.99996259 83.37620635 35.54778505 80.09835397 34.11230469 76.81201172 C32.13140848 72.28277391 30.09702825 67.77982085 28.0390625 63.28515625 C27.40127988 61.89136013 26.76350313 60.49756133 26.12573242 59.10375977 C25.81477631 58.42435333 25.50382019 57.7449469 25.18344116 57.04495239 C23.94724934 54.33674375 22.72124591 51.62398493 21.49559021 48.91099548 C17.13683427 39.26348742 12.68723589 29.65939755 8.20996094 20.06640625 C6.00252248 15.33310741 3.79741232 10.59860085 1.63671875 5.84375 C1.15851685 4.79477539 1.15851685 4.79477539 0.6706543 3.72460938 C0 2 0 2 0 0 Z " class="ink" transform="translate(621,87)"/>
  <path d="M0 0 C2.59375 0.30078125 2.59375 0.30078125 4.4453125 1.96875 C6.77815158 6.70584159 6.37264349 12.48478171 4.984375 17.50390625 C3.86087333 20.23241031 2.68536983 22.20916142 0.59375 24.30078125 C-2.20703125 24.64453125 -2.20703125 24.64453125 -5.71875 24.80078125 C-10.27439512 25.06713953 -14.71696197 25.42956095 -19.21875 26.17578125 C-25.82465711 27.25229945 -32.45131878 28.10594311 -39.09375 28.92578125 C-40.15118408 29.06097168 -41.20861816 29.19616211 -42.2980957 29.33544922 C-59.86550509 31.47174738 -59.86550509 31.47174738 -64.53125 27.92578125 C-66.90287259 24.38100727 -66.96616647 20.83440962 -66.97265625 16.66796875 C-66.2127829 13.49222218 -64.8886016 12.39263873 -62.40625 10.30078125 C-59.87939453 9.43530273 -59.87939453 9.43530273 -57.0390625 8.921875 C-55.99580811 8.72440674 -54.95255371 8.52693848 -53.87768555 8.32348633 C-52.77336182 8.13036865 -51.66903809 7.93725098 -50.53125 7.73828125 C-48.24852411 7.31473778 -45.96597019 6.8902663 -43.68359375 6.46484375 C-42.04366455 6.16562012 -42.04366455 6.16562012 -40.37060547 5.86035156 C-36.91580358 5.20820151 -33.51383041 4.42621753 -30.09375 3.61328125 C-20.18964553 1.44791182 -10.07509795 0.88965888 0 0 Z " class="ink" transform="translate(823.40625,365.69921875)"/>
  <path d="M0 0 C9.02677807 -0.67272736 15.1960726 3.6765108 22.4453125 8.41015625 C23.56679688 8.94576172 23.56679688 8.94576172 24.7109375 9.4921875 C28.9725705 11.6693261 30.09229115 14.58867187 31.59741211 19.07617188 C32.442648 21.82342288 33.21969876 24.57806687 33.92041016 27.36572266 C34.26697165 28.71553938 34.64646053 30.05737681 35.06005859 31.38818359 C38.09850134 41.63563002 34.34959569 50.2180506 30.6328125 59.84765625 C30.19388672 61.01103516 29.75496094 62.17441406 29.30273438 63.37304688 C26.76135586 70.0833435 24.13813075 76.75926534 21.4453125 83.41015625 C20.18543693 79.73818246 20.64493909 76.79219284 21.22265625 72.9921875 C21.40634766 71.73728516 21.59003906 70.48238281 21.77929688 69.18945312 C21.97968781 67.86706892 22.18086507 66.54480365 22.3828125 65.22265625 C25.16102566 50.18554201 25.16102566 50.18554201 22.4453125 35.47265625 C20.4453125 30.53515625 20.4453125 30.53515625 20.4453125 28.41015625 C19.32253906 28.37277344 18.19976563 28.33539063 17.04296875 28.296875 C-2.56105616 27.50859744 -2.56105616 27.50859744 -7.33984375 22.5625 C-8.60459899 21.03996026 -9.85656255 19.50673205 -11.09765625 17.96484375 C-14.76835463 14.14825116 -19.07493165 11.49259306 -23.53955078 8.68530273 C-28.47166634 5.57619857 -28.47166634 5.57619857 -29.5546875 3.41015625 C-21.87672611 1.63092094 -13.878097 1.26854332 -6.04199219 0.62548828 C-4.02477662 0.45085301 -2.01141543 0.2320864 0 0 Z " class="ink" transform="translate(622.5546875,245.58984375)"/>
  <path d="M0 0 C0.83163162 0.3513501 1.66326324 0.7027002 2.52009583 1.06469727 C5.167627 2.18457166 7.81230484 3.31102019 10.45703125 4.4375 C12.24787046 5.19572931 14.03888424 5.95354643 15.83007812 6.7109375 C28.80929858 12.20738366 28.80929858 12.20738366 31.26953125 13.4375 C30.13025169 16.85533867 29.45570952 17.31099509 26.51953125 19.1875 C25.8440625 19.63609375 25.16859375 20.0846875 24.47265625 20.546875 C19.84715112 22.41676005 15.15178207 19.69246273 10.796875 17.8984375 C9.55549829 17.39543891 8.31395682 16.89284677 7.07226562 16.390625 C5.13269654 15.6007129 3.1947176 14.80740598 1.25952148 14.00683594 C-0.61996484 13.23154486 -2.50467691 12.47034824 -4.390625 11.7109375 C-5.51090088 11.25122559 -6.63117676 10.79151367 -7.78540039 10.31787109 C-10.78933939 9.41990176 -11.88628642 9.31222321 -14.73046875 10.4375 C-15.78621094 10.81519531 -16.84195313 11.19289062 -17.9296875 11.58203125 C-23.44463685 14.20931249 -23.44463685 14.20931249 -27.73046875 18.4375 C-30.54483702 26.48861641 -29.98188025 36.62945087 -26.73046875 44.4375 C-26.14265625 45.489375 -26.14265625 45.489375 -25.54296875 46.5625 C-24.73046875 48.4375 -24.73046875 48.4375 -24.95703125 50.57421875 C-26.14272355 53.43065929 -27.98476325 54.19539513 -30.73046875 55.4375 C-33.73046875 54.4375 -33.73046875 54.4375 -35.5546875 51.41015625 C-41.78902241 38.77944938 -41.78902241 38.77944938 -41.01171875 32.26953125 C-40.76485917 29.78379245 -40.87126553 27.84497304 -41.13671875 25.38671875 C-41.43902946 20.28508718 -41.32408145 15.9581427 -38.73046875 11.4375 C-34.98072568 7.79830535 -30.84301051 4.98120554 -26.41796875 2.25 C-25.84490997 1.89403748 -25.2718512 1.53807495 -24.681427 1.17132568 C-14.45960511 -5.04891833 -10.55535059 -4.51316545 0 0 Z " class="bg" transform="translate(579.73046875,165.5625)"/>
  <path d="M0 0 C2.21970606 2.14043084 2.92305672 3.54111308 3.43359375 6.5859375 C3.43552734 7.96652344 3.43552734 7.96652344 3.4375 9.375 C3.45683594 10.29023438 3.47617187 11.20546875 3.49609375 12.1484375 C2.61431512 17.21692882 -0.13451531 20.53029013 -4.1640625 23.5546875 C-5.30996473 24.33955204 -6.46379468 25.11295901 -7.625 25.875 C-8.21023438 26.2771875 -8.79546875 26.679375 -9.3984375 27.09375 C-13.70838648 30 -13.70838648 30 -16 30 C-16 27.36 -16 24.72 -16 22 C-17.00377686 22.02618408 -18.00755371 22.05236816 -19.04174805 22.0793457 C-22.77817352 22.17008168 -26.51450235 22.22733262 -30.25170898 22.2746582 C-31.86678461 22.29974959 -33.48174726 22.33383126 -35.09643555 22.37719727 C-37.42264706 22.43809286 -39.74735359 22.46626124 -42.07421875 22.48828125 C-43.15107185 22.52699089 -43.15107185 22.52699089 -44.24967957 22.56648254 C-48.25934504 22.56870834 -49.81920349 22.15214117 -52.93286133 19.53198242 C-53.61501709 18.69642822 -54.29717285 17.86087402 -55 17 C-55.33 16.67 -55.66 16.34 -56 16 C-56.47276693 8.67211263 -56.47276693 8.67211263 -54.89526367 6.42944336 C-52.13668349 4.34887052 -49.77101809 4.3969833 -46.34765625 4.12109375 C-45.69228378 4.0634938 -45.03691132 4.00589386 -44.36167908 3.94654846 C-42.26280209 3.76410708 -40.16301774 3.59985769 -38.0625 3.4375 C-35.32362291 3.21379339 -32.58549365 2.98216701 -29.84765625 2.74609375 C-29.17891983 2.689375 -28.51018341 2.63265625 -27.82118225 2.57421875 C-22.69345508 2.11733645 -17.66256543 1.36516943 -12.60351562 0.42358398 C-8.51228619 -0.24204646 -4.07588229 -0.91262639 0 0 Z " class="ink" transform="translate(818,397)"/>
  <path d="M0 0 C2.21905804 3.32858706 2.95781905 6.43220525 3.875 10.25 C5.7733768 18.19783698 5.7733768 18.19783698 10 25 C13.54254315 26.8251278 17.16866458 27.93628734 21 29 C22.04414062 29.2990625 23.08828125 29.598125 24.1640625 29.90625 C26.76954029 30.63336008 29.379138 31.33084375 32 32 C32 32.66 32 33.32 32 34 C30.92621094 34.24234375 29.85242188 34.4846875 28.74609375 34.734375 C27.3097591 35.07233609 25.87356871 35.41091065 24.4375 35.75 C23.73302734 35.90726563 23.02855469 36.06453125 22.30273438 36.2265625 C16.51306686 37.61394826 10.93500106 39.29190272 7.328125 44.33984375 C4.39021662 51.41849982 2.47068404 58.47918487 1 66 C-0.94335636 62.53463445 -1.87029811 59.01948283 -2.875 55.1875 C-4.98268929 46.1939702 -4.98268929 46.1939702 -11.08984375 39.8046875 C-16.48612839 37.50295471 -22.1509292 36.06920342 -27.84765625 34.7109375 C-28.55792969 34.47632813 -29.26820313 34.24171875 -30 34 C-30.33 33.34 -30.66 32.68 -31 32 C-29.75863281 31.66226563 -28.51726563 31.32453125 -27.23828125 30.9765625 C-25.5963124 30.5261939 -23.95438763 30.07566461 -22.3125 29.625 C-21.49587891 29.40328125 -20.67925781 29.1815625 -19.83789062 28.953125 C-13.7903969 27.3368365 -13.7903969 27.3368365 -8 25 C-6.74216399 22.86430119 -6.74216399 22.86430119 -6 20 C-5.52131935 18.62483073 -5.04209863 17.24984939 -4.5625 15.875 C-2.83237191 10.64047982 -1.40462093 5.32959005 0 0 Z " class="ink" transform="translate(848,113)"/>
  <path d="M0 0 C3.07217371 3.07217371 3.17238528 6.88145555 4.0234375 11.0546875 C5.15802871 14.47661458 6.13533084 15.82979609 9 18 C12.24358622 19.33127319 12.24358622 19.33127319 15.75 20.25 C16.92046875 20.58515625 18.0909375 20.9203125 19.296875 21.265625 C20.18890625 21.50796875 21.0809375 21.7503125 22 22 C18.91739167 25.08260833 14.97405129 25.61139221 10.84765625 26.8046875 C7.62194069 28.15869156 6.66758936 28.96519451 5 32 C4.19667198 34.22460067 3.47126679 36.47839036 2.8125 38.75 C2.46832031 39.92046875 2.12414062 41.0909375 1.76953125 42.296875 C1.38861328 43.63492188 1.38861328 43.63492188 1 45 C-1.45468305 41.31797543 -2.11683662 37.86327745 -3.12109375 33.59375 C-4.07460396 30.77983544 -4.59256959 29.70332173 -7 28 C-10.1466632 26.84403636 -10.1466632 26.84403636 -13.625 25.9375 C-15.76656577 25.34892398 -17.89738358 24.71535297 -20 24 C-20.33 23.34 -20.66 22.68 -21 22 C-20.19175781 21.84144531 -19.38351562 21.68289063 -18.55078125 21.51953125 C-10.03574303 19.82770758 -10.03574303 19.82770758 -4 14 C-2.74756471 10.71702069 -1.82149205 7.41363249 -1 4 C-0.71382812 2.85724609 -0.71382812 2.85724609 -0.421875 1.69140625 C-0.28265625 1.13324219 -0.1434375 0.57507813 0 0 Z " class="ink" transform="translate(865,287)"/>
  <path d="M0 0 C2.36578097 2.36578097 2.51366247 3.72310346 3.25 6.9375 C4.43478046 11.15338868 4.43478046 11.15338868 7.75 14 C8.8225 14.33 9.895 14.66 11 15 C11.64195312 15.19980469 12.28390625 15.39960937 12.9453125 15.60546875 C14.61869437 16.11019324 16.30839861 16.56018364 18 17 C15.17945273 18.88036485 13.74438685 19.33812441 10.5625 20.0625 C7.6397488 20.98297684 6.3416007 21.50088343 4.59375 24.0546875 C3.60316463 26.34354005 2.79074734 28.63595225 2 31 C1.35454927 32.34373196 0.69416993 33.68077662 0 35 C-0.14953125 34.19175781 -0.2990625 33.38351563 -0.453125 32.55078125 C-2.0679497 25.76355741 -2.0679497 25.76355741 -6.9375 21.08984375 C-9.93365863 19.87795412 -12.88124144 18.84343785 -16 18 C-13.66706638 15.66706638 -12.26058614 15.49031012 -9.125 14.625 C-5.49555971 13.27182717 -4.28762102 12.54473677 -2.453125 9.0703125 C-1.47616331 6.06155368 -0.65198657 3.09450343 0 0 Z " class="ink" transform="translate(882,89)"/>
  <path d="M0 0 C0.33 0 0.66 0 1 0 C1 26.07 1 52.14 1 79 C0.67 79 0.34 79 0 79 C0 54.25 0 29.5 0 4 C-0.66 4 -1.32 4 -2 4 C-1.34 2.68 -0.68 1.36 0 0 Z " class="dim" transform="translate(604,403)"/>
  <path d="M0 0 C4.49260784 5.217222 4.49260784 5.217222 5 9 C4.47094727 11.10644531 4.47094727 11.10644531 3.56640625 13.328125 C3.24736328 14.12734375 2.92832031 14.9265625 2.59960938 15.75 C2.25736328 16.575 1.91511719 17.4 1.5625 18.25 C1.22412109 19.09046875 0.88574219 19.9309375 0.53710938 20.796875 C-0.29873438 22.86882572 -1.14466649 24.93603615 -2 27 C-3.08130697 23.64207546 -2.92420653 21.05428704 -2.44140625 17.578125 C-2.30283203 16.55332031 -2.16425781 15.52851563 -2.02148438 14.47265625 C-1.87001953 13.40917969 -1.71855469 12.34570312 -1.5625 11.25 C-1.41490234 10.17105469 -1.26730469 9.09210938 -1.11523438 7.98046875 C-0.75020795 5.31930834 -0.37822581 2.65931106 0 0 Z " class="ink" transform="translate(646,302)"/>
  <path d="M0 0 C1 2 1 2 0.00390625 5.0390625 C-0.47175781 6.22242188 -0.94742188 7.40578125 -1.4375 8.625 C-2.14712891 10.40777344 -2.14712891 10.40777344 -2.87109375 12.2265625 C-3.24363281 13.14179688 -3.61617187 14.05703125 -4 15 C-4.33 14.34 -4.66 13.68 -5 13 C-9.86971174 13.41740386 -11.72184884 15.54465148 -15 19 C-15.66 19 -16.32 19 -17 19 C-15.60652624 15.84795019 -13.97514921 13.73828227 -11.5234375 11.328125 C-10.51796875 10.33232422 -10.51796875 10.33232422 -9.4921875 9.31640625 C-8.79351563 8.63449219 -8.09484375 7.95257813 -7.375 7.25 C-6.66859375 6.55261719 -5.9621875 5.85523438 -5.234375 5.13671875 C-3.49401297 3.41987512 -1.74915019 1.70788168 0 0 Z " class="ink" transform="translate(631,308)"/>
  <path d="M0 0 C1.31409011 0.45375419 2.62721889 0.91036131 3.9375 1.375 C3.9375 1.705 3.9375 2.035 3.9375 2.375 C-7.4475 1.88 -7.4475 1.88 -19.0625 1.375 C-17.7425 1.045 -16.4225 0.715 -15.0625 0.375 C-15.3925 -0.615 -15.7225 -1.605 -16.0625 -2.625 C-11.50292518 -4.90478741 -4.58754708 -1.52434317 0 0 Z " class="ink" transform="translate(646.0625,372.625)"/>
  <path d="M0 0 C0.66 0.33 1.32 0.66 2 1 C-0.97 5.95 -0.97 5.95 -4 11 C-5.32 10.34 -6.64 9.68 -8 9 C-7.61479436 6.46089803 -7.29902057 5.27248877 -5.37109375 3.515625 C-4.73300781 3.09796875 -4.09492187 2.6803125 -3.4375 2.25 C-2.79683594 1.82203125 -2.15617188 1.3940625 -1.49609375 0.953125 C-1.00238281 0.63859375 -0.50867188 0.3240625 0 0 Z " class="ink" transform="translate(600,213)"/>
  <path d="M0 0 C0.33 1.32 0.66 2.64 1 4 C-2.40931897 5.13643966 -3.00335456 4.86747764 -6.1875 3.5625 C-6.90292969 3.27503906 -7.61835937 2.98757812 -8.35546875 2.69140625 C-8.89816406 2.46324219 -9.44085937 2.23507813 -10 2 C-10 1.34 -10 0.68 -10 0 C-6.30458414 -0.95024979 -3.69541586 -0.95024979 0 0 Z " class="ink" transform="translate(569,116)"/>
  <path d="M0 0 C0 0.66 0 1.32 0 2 C-1.41538717 2.33872513 -2.83237963 2.67074624 -4.25 3 C-5.03890625 3.185625 -5.8278125 3.37125 -6.640625 3.5625 C-9 4 -9 4 -13 4 C-12 1 -12 1 -9.875 -0.25 C-6.30033417 -1.18252152 -3.59483517 -0.70486964 0 0 Z " class="ink" transform="translate(880,145)"/>
  <path d="M0 0 C0.33 0.99 0.66 1.98 1 3 C-0.66666667 4.66666667 -2.33333333 6.33333333 -4 8 C-4.886875 8.928125 -5.77375 9.85625 -6.6875 10.8125 C-9 13 -9 13 -11 13 C-9.46356148 9.31930113 -7.21849055 7.01224796 -4.375 4.25 C-3.55773437 3.45078125 -2.74046875 2.6515625 -1.8984375 1.828125 C-0.95871094 0.92320312 -0.95871094 0.92320312 0 0 Z " class="ink" transform="translate(625,314)"/>
  <path d="M0 0 C4.42857143 5.14285714 4.42857143 5.14285714 5 9 C4.360625 9.12375 3.72125 9.2475 3.0625 9.375 C2.381875 9.58125 1.70125 9.7875 1 10 C0.67 10.66 0.34 11.32 0 12 C0 8.04 0 4.08 0 0 Z " class="ink" transform="translate(646,302)"/>
  <path d="M0 0 C2.97 0.33 5.94 0.66 9 1 C7.68 2.32 6.36 3.64 5 5 C3.35 3.35 1.7 1.7 0 0 Z " class="ink" transform="translate(593,249)"/>
  <path d="M0 0 C2.46800047 1.15173355 4.04783565 2.04783565 6 4 C5.34 5.65 4.68 7.3 4 9 C2.00902154 6.01353231 1.05875074 3.40312738 0 0 Z " class="ink" transform="translate(642,342)"/>
  <path d="M0 0 C0.33 1.32 0.66 2.64 1 4 C-1.3431213 3.74438677 -3.67843403 3.40729228 -6 3 C-6.33 2.34 -6.66 1.68 -7 1 C-4.53721199 -0.231394 -2.7204945 -0.07159196 0 0 Z " class="ink" transform="translate(824,144)"/>
  <path d="M0 0 C2.29013653 3.4352048 2.17842973 4.985331 2 9 C1.01 9.33 0.02 9.66 -1 10 C-1.125 3.375 -1.125 3.375 0 0 Z " class="ink" transform="translate(848,113)"/>
  <path d="M0 0 C1.27875 0.28875 2.5575 0.5775 3.875 0.875 C4.95394531 1.11863281 4.95394531 1.11863281 6.0546875 1.3671875 C8 2 8 2 10 4 C3.375 4.25 3.375 4.25 0 2 C0 1.34 0 0.68 0 0 Z " class="ink" transform="translate(640,371)"/>
  <path d="M0 0 C-0.598125 0.268125 -1.19625 0.53625 -1.8125 0.8125 C-3.97224808 1.98493467 -5.35790256 3.19369282 -7 5 C-7.66 4.01 -8.32 3.02 -9 2 C-3.375 -1.125 -3.375 -1.125 0 0 Z " class="ink" transform="translate(782,319)"/>
  <path d="M0 0 C0.66 0.33 1.32 0.66 2 1 C0.02 3.97 0.02 3.97 -2 7 C-3.32 6.01 -4.64 5.02 -6 4 C-4.02 2.68 -2.04 1.36 0 0 Z " class="ink" transform="translate(600,213)"/>
  <path d="M0 0 C0.66 0 1.32 0 2 0 C2.33 0.99 2.66 1.98 3 3 C2.67 3.33 2.34 3.66 2 4 C1.63239269 6.32817964 1.29758419 8.6618385 1 11 C0.34 10.67 -0.32 10.34 -1 10 C-0.67 6.7 -0.34 3.4 0 0 Z " class="ink" transform="translate(659,449)"/>
  <path d="M0 0 C1.98 0 3.96 0 6 0 C6.33 1.32 6.66 2.64 7 4 C4.69 3.34 2.38 2.68 0 2 C0 1.34 0 0.68 0 0 Z " class="ink" transform="translate(559,116)"/>
</svg>
