<svg xmlns="http://www.w3.org/2000/svg" viewBox="0 0 1200 600" role="img" aria-labelledby="title desc">
  <title id="title">Temptation category artwork</title>
  <desc id="desc">Warm abstract valleys and light beams representing resistance and clarity.</desc>
  <defs>
    <linearGradient id="bg" x1="0" y1="0" x2="1" y2="1">
      <stop offset="0" stop-color="#382525"/>
      <stop offset="0.55" stop-color="#6e3f43"/>
      <stop offset="1" stop-color="#c8835e"/>
    </linearGradient>
    <linearGradient id="beam" x1="0" y1="0" x2="0" y2="1">
      <stop offset="0" stop-color="#f9d9a0" stop-opacity="0.78"/>
      <stop offset="1" stop-color="#f9d9a0" stop-opacity="0"/>
    </linearGradient>
  </defs>
  <rect width="1200" height="600" fill="url(#bg)"/>
  <path d="M0 430C140 360 300 340 420 380C530 415 640 500 760 505C900 511 1030 420 1200 390V600H0Z" fill="#3f1f23" fill-opacity="0.6"/>
  <path d="M0 470C150 430 295 440 430 500C575 565 720 585 900 548C1000 527 1098 476 1200 450V600H0Z" fill="#25151a" fill-opacity="0.55"/>
  <ellipse cx="860" cy="80" rx="220" ry="120" fill="url(#beam)"/>
  <circle cx="930" cy="105" r="58" fill="#ffe2aa" fill-opacity="0.72"/>
</svg>
